<?xml version="1.0" encoding="UTF-8" standalone="no" ?>
<!DOCTYPE svg PUBLIC "-//W3C//DTD SVG 1.1//EN" "http://www.w3.org/Graphics/SVG/1.1/DTD/svg11.dtd">
<svg xmlns="http://www.w3.org/2000/svg" xmlns:xlink="http://www.w3.org/1999/xlink" version="1.1" width="1280" height="1024" viewBox="0 0 1280 1024" xml:space="preserve">
<desc>Created with Fabric.js 5.3.0</desc>
<defs>
</defs>
<g transform="matrix(1 0 0 1 640 512)" id="background-logo"  >
<rect style="stroke: none; stroke-width: 0; stroke-dasharray: none; stroke-linecap: butt; stroke-dashoffset: 0; stroke-linejoin: miter; stroke-miterlimit: 4; fill: rgb(255,255,255); fill-opacity: 0; fill-rule: nonzero; opacity: 1;"  paint-order="stroke"  x="-640" y="-512" rx="0" ry="0" width="1280" height="1024" />
</g>
<g transform="matrix(1.9211538461538462 0 0 1.9211538461538462 640 405.309202244928)" id="logo-logo"  >
<g style=""  paint-order="stroke"   >
		<g transform="matrix(0.620133606563293 0 0 -0.6201336065632931 0 2.842171e-14)"  >
<linearGradient id="SVGID_17_12463" gradientUnits="userSpaceOnUse" gradientTransform="matrix(1 0 0 1 -163.56978970707226 -40.605000000000004)"  x1="0" y1="0" x2="0" y2="276">
<stop offset="0%" style="stop-color:rgb(250,217,97);stop-opacity: 1"/>
<stop offset="100%" style="stop-color:rgb(247,107,28);stop-opacity: 1"/>
</linearGradient>
<path style="stroke: none; stroke-width: 1; stroke-dasharray: none; stroke-linecap: butt; stroke-dashoffset: 0; stroke-linejoin: miter; stroke-miterlimit: 4; fill: url(#SVGID_17_12463); fill-rule: nonzero; opacity: 1;"  paint-order="stroke"  transform=" translate(42.28039485353612, -97.34499999999998)" d="M 0 0 L -3.78 2.081 C 6.408 6.948 38.066 20.118 68.485 12.527 L 71.114 8.584 C 36.145 11.404 12.832 5.225 0 0 M -93.224 -34.962 L -135.215 26.921999999999997 L -134.294 30.194999999999997 L -93.22000000000001 -30.032 L -91.59100000000001 -28.932 C -91.12400000000001 -28.622 -47.51800000000001 0.5200000000000031 -18.429000000000002 -2.201999999999998 L -19.477000000000004 -5.978999999999998 C -53.968 -8.171999999999999 -85.587 -29.474999999999998 -93.224 -34.961999999999996 M -134.188 94.584 C -133.02599999999998 102.785 -131.24699999999999 115.209 -129.761 124.80600000000001 C -128.464 133.163 -123.25999999999999 138.905 -119.045 142.287 C -120.508 138.294 -122.013 132.41400000000002 -122.554 124.349 C -123.226 114.24600000000001 -129.587 102.141 -134.188 94.584 M -135.38899999999998 85.505 C -132.89899999999997 89.00399999999999 -119.66199999999998 108.28399999999999 -118.60799999999998 124.086 C -117.55899999999997 139.84 -112.60199999999998 146.551 -112.55999999999997 146.608 C -112.00399999999998 147.329 -112.00699999999998 148.334 -112.57499999999997 149.046 C -113.13899999999997 149.75799999999998 -114.12299999999998 149.994 -114.94099999999997 149.618 C -115.60199999999998 149.316 -131.08099999999996 142.07999999999998 -133.66699999999997 125.41199999999999 C -134.21599999999998 121.86299999999999 -134.80599999999998 117.92999999999999 -135.38899999999998 113.96699999999998 L -135.38899999999998 122.52999999999999 C -135.38899999999998 162.34499999999997 -102.99699999999999 194.738 -63.17899999999999 194.738 C -49.89499999999999 194.738 -37.43799999999999 191.127 -26.733999999999988 184.84199999999998 C -39.51399999999999 185.91299999999998 -48.46199999999999 176.057 -48.841999999999985 175.63199999999998 C -49.39799999999998 175.00099999999998 -49.493999999999986 174.08399999999997 -49.08199999999999 173.34999999999997 C -48.664999999999985 172.61699999999996 -47.826999999999984 172.23999999999995 -47.00099999999998 172.37899999999996 C -25.882999999999985 176.27499999999995 -2.28899999999998 158.35899999999995 0.8480000000000132 155.88099999999997 C 6.068000000000013 145.89899999999997 9.026000000000014 134.55499999999998 9.026000000000014 122.52999999999997 L 9.026000000000014 86.435 L 7.896 87.276 L 6.973 87.035 C 6.873 87.009 -3.666 84.305 -31.286 82.511 C -55.123 80.961 -63.963 68.354 -66.557 63.334 C -92.008 74.495 -132.27 45.497 -134.015 44.226 L -134.57 43.821999999999996 L -135.38899999999998 40.909 z M -12.45099999999998 173.863 C -9.51499999999998 170.96 -6.823999999999979 167.81 -4.415999999999979 164.444 C -12.80599999999998 169.79299999999998 -26.591999999999977 176.89 -40.704999999999984 176.89 C -40.87099999999998 176.89 -41.036999999999985 176.89 -41.20299999999998 176.88799999999998 C -37.72499999999998 179.19099999999997 -32.55999999999998 181.53799999999998 -26.51499999999998 180.85799999999998 C -21.68999999999998 180.313 -16.99199999999998 177.96899999999997 -12.45099999999998 173.86299999999997 M 14.07200000000002 187.26299999999998 C 14.77400000000002 180.82999999999998 16.326000000000022 172.188 19.54200000000002 161.25599999999997 C 24.79200000000002 143.40799999999996 17.66200000000002 127.41099999999997 12.97900000000002 119.50399999999996 L 12.97900000000002 122.45999999999997 C 13.164000000000021 124.70199999999997 15.536000000000021 154.48799999999997 12.94000000000002 167.44399999999996 C 11.78300000000002 173.23399999999995 12.72900000000002 180.81599999999997 14.07200000000002 187.26299999999995 M -13.643 10.633 L -63.256 61.108 C -61.438 64.88799999999999 -53.838 77.084 -31.031 78.566 C -7.259999999999998 80.11 3.896000000000001 82.283 7.038000000000004 82.988 L 58.742 44.486 C 42.628 44.398 0.947 41.459 -13.643 10.633 M 59.363 26.208 C 24.937 30.255 3.153 20.566 -7.223 13.992 C 5.889 33.935 33.445 39.012 50.42 40.172 L 50.165 40.001999999999995 z M -11.179 6.155 C -7.748 9.188 16.092 28.369 62.274 21.842 L 65.318 17.276 C 31.481 23.834 -1.594 7.766 -8.008 4.409 Z M -17.783 -5.887 C -17.814 -5.888 -17.846 -5.89 -17.877000000000002 -5.890999999999999 L -17.733000000000004 -5.749999999999999 z M -90.514 -21.621 L -88.881 -20.415999999999997 C -54.462 4.902000000000005 -25.436 5.889000000000003 -16.302999999999997 5.457000000000004 L -17.354999999999997 1.6640000000000041 C -44.973 4.721000000000004 -83.62299999999999 -19.057999999999996 -92.15799999999999 -24.576999999999995 L -132.896 35.162000000000006 L -132.07999999999998 38.063 z M -66.776 59.05200000000001 L -18.095 9.522000000000006 C -29.316 9.792 -56.751 7.53 -89.579 -16.043 L -130.101 42.135 C -122.265 47.461999999999996 -87.358 69.776 -66.776 59.052 M -159.449 90.57900000000001 C -158.631 104.21900000000001 -158.477 113.15700000000001 -158.608 119.004 C -155.13 111.79100000000001 -151.03 101.88000000000001 -151.424 95.914 C -152.019 86.883 -144.03900000000002 63.7 -140.662 54.370000000000005 C -147.413 57.337 -160.905 66.339 -159.449 90.57900000000001 M -113.06200000000001 205.155 C -105.85100000000001 209.751 -100.72400000000002 213.925 -97.09200000000001 217.577 C -100.662 208.82999999999998 -106.638 198.069 -116.32700000000001 189.488 C -124.43 182.308 -129.36700000000002 173.836 -132.37 166.084 C -130.583 180.235 -125.703 197.101 -113.06200000000001 205.155 M 54.654 40.396 C 60.699000000000005 40.626 64.66 40.361000000000004 64.811 40.35 L 71.578 39.854 L 12.979000000000006 83.491 L 12.979000000000006 112.344 C 15.863000000000007 116.09899999999999 30.753000000000007 137.144 23.333000000000006 162.37199999999999 C 15.778000000000006 188.063 17.739000000000004 200.766 17.759000000000007 200.88899999999998 C 17.925000000000008 201.89999999999998 17.291000000000007 202.87599999999998 16.299000000000007 203.13 C 15.296000000000006 203.375 14.284000000000006 202.837 13.944000000000006 201.874 C 13.636000000000006 200.99 6.375000000000006 180.105 9.065000000000007 166.668 C 10.188000000000006 161.064 10.313000000000006 151.845 10.104000000000006 143.291 C 8.670000000000007 148.343 6.725000000000007 153.179 4.332000000000006 157.74699999999999 C 4.295000000000006 157.85899999999998 4.248000000000006 157.969 4.189000000000006 158.075 C 3.8370000000000064 158.71699999999998 3.481000000000006 159.344 3.125000000000006 159.963 C 2.4130000000000065 161.219 1.6700000000000061 162.454 0.8900000000000063 163.664 C -2.4289999999999936 168.891 -5.885999999999994 173.16299999999998 -9.466999999999993 176.47199999999998 C -23.247999999999994 190.195 -42.23899999999999 198.69099999999997 -63.178999999999995 198.69099999999997 C -92.70599999999999 198.69099999999997 -118.363 181.801 -130.99599999999998 157.17499999999998 C -128.7 166.1 -123.86999999999998 177.52399999999997 -113.70599999999999 186.529 C -97.701 200.702 -91.41299999999998 219.93599999999998 -89.28599999999999 228.552 C -88.16199999999999 231.385 -88.28199999999998 233.132 -88.33599999999998 233.57 C -88.45999999999998 234.545 -89.28599999999999 235.28 -90.27099999999999 235.295 C -91.23899999999999 235.261 -92.09999999999998 234.595 -92.25099999999999 233.624 C -92.25899999999999 233.566 -92.48199999999999 232.202 -93.04599999999999 229.924 C -94.67899999999999 225.911 -99.716 218.345 -115.18499999999999 208.49 C -141.06 192.005 -137.195 144.537 -137.01799999999997 142.524 C -136.99799999999996 142.297 -136.93499999999997 142.084 -136.84599999999998 141.887 C -138.47199999999998 135.704 -139.34199999999998 129.217 -139.34199999999998 122.53 L -139.34199999999998 62.551 C -143.004 73.268 -147.914 89.077 -147.47899999999998 95.655 C -146.73 107.008 -159.28699999999998 128.948 -159.82 129.876 C -160.35999999999999 130.809 -161.576 131.21 -162.522 130.692 C -163.464 130.172 -163.851 129.06300000000002 -163.349 128.11 C -163.271 127.90100000000001 -161.488 122.63300000000001 -163.39499999999998 90.81400000000002 C -165.21999999999997 60.395000000000024 -145.18599999999998 51.57100000000002 -139.34199999999998 49.65500000000002 L -139.34199999999998 26.842 L -139.516 26.223 L -94.16899999999998 -40.605000000000004 L -92.50899999999999 -39.339000000000006 C -92.10399999999998 -39.03000000000001 -51.149999999999984 -8.334000000000007 -10.937999999999988 -9.797000000000004 L -10.250999999999989 -9.820000000000004 L -9.69899999999999 -9.415000000000004 C -9.436999999999989 -9.222000000000005 17.52600000000001 9.953999999999995 74.85500000000002 4.276999999999996 L 79.00900000000001 3.8659999999999957 z" stroke-linecap="round" />
</g>
		<g transform="matrix(0.620133606563293 0 0 -0.6201336065632931 -13.683809340560003 -21.13142472380818)"  >
<linearGradient id="SVGID_17_12464" gradientUnits="userSpaceOnUse" gradientTransform="matrix(1 0 0 1 -37.61 -71.271)"  x1="0" y1="0" x2="0" y2="75">
<stop offset="0%" style="stop-color:rgb(250,217,97);stop-opacity: 1"/>
<stop offset="100%" style="stop-color:rgb(247,107,28);stop-opacity: 1"/>
</linearGradient>
<path style="stroke: none; stroke-width: 1; stroke-dasharray: none; stroke-linecap: butt; stroke-dashoffset: 0; stroke-linejoin: miter; stroke-miterlimit: 4; fill: url(#SVGID_17_12464); fill-rule: nonzero; opacity: 1;"  paint-order="stroke"  transform=" translate(2.4410000000000025, 33.659)" d="M 0 0 C 9.014 0 17.444 -3.534 23.725 -9.824 C 9.442 -10.482 -1.977 -22.308 -1.977 -36.751 C -1.977 -48.840999999999994 6.003 -59.215999999999994 17.225 -62.565 C 12.032 -65.686 6.153 -67.319 0 -67.319 C -18.56 -67.319 -33.657 -52.219 -33.657 -33.660000000000004 C -33.657 -15.099 -18.56 0 0 0 M 0 -71.271 C 8.562 -71.271 16.642 -68.44800000000001 23.366 -63.105000000000004 L 27.103 -60.132000000000005 L 22.358 -59.59400000000001 C 10.739 -58.27400000000001 1.9770000000000003 -48.45400000000001 1.9770000000000003 -36.751000000000005 C 1.9770000000000003 -24.067000000000007 12.295 -13.748000000000005 24.979 -13.748000000000005 C 26.006999999999998 -13.748000000000005 27.009999999999998 -13.841000000000005 28.006 -13.970000000000004 L 32.728 -14.590000000000003 L 29.828000000000003 -10.809000000000003 C 22.633 -1.428 11.762 3.953 0 3.953 C -20.737 3.953 -37.61 -12.920000000000002 -37.61 -33.66 C -37.61 -54.397999999999996 -20.737 -71.27099999999999 0 -71.27099999999999" stroke-linecap="round" />
</g>
		<g transform="matrix(0.620133606563293 0 0 -0.6201336065632931 -29.911895575618132 33.21942384817419)"  >
<linearGradient id="SVGID_17_12465" gradientUnits="userSpaceOnUse" gradientTransform="matrix(1 0 0 1 -0.13933290809856658 -1.2430000000000003)"  x1="0" y1="0" x2="0" y2="19">
<stop offset="0%" style="stop-color:rgb(250,217,97);stop-opacity: 1"/>
<stop offset="100%" style="stop-color:rgb(247,107,28);stop-opacity: 1"/>
</linearGradient>
<path style="stroke: none; stroke-width: 1; stroke-dasharray: none; stroke-linecap: butt; stroke-dashoffset: 0; stroke-linejoin: miter; stroke-miterlimit: 4; fill: url(#SVGID_17_12465); fill-rule: nonzero; opacity: 1;"  paint-order="stroke"  transform=" translate(-20.28770657118855, -8.096127760033404)" d="M 0 0 C 0.309 -0.772 1.054 -1.243 1.837 -1.243 C 2.08 -1.243 2.331 -1.1980000000000002 2.57 -1.102 L 39.471000000000004 13.623 C 40.482000000000006 14.027999999999999 40.977000000000004 15.177 40.575 16.191 C 40.17 17.203 39.012 17.698999999999998 38.004000000000005 17.294 L 1.104 2.569 C 0.093 2.164 -0.401 1.016 0 0" stroke-linecap="round" />
</g>
		<g transform="matrix(0.620133606563293 0 0 -0.6201336065632931 -27.15684256260505 39.452338469414485)"  >
<linearGradient id="SVGID_17_12466" gradientUnits="userSpaceOnUse" gradientTransform="matrix(1 0 0 1 -0.16656886850878294 -1.1809999999999992)"  x1="0" y1="0" x2="0" y2="24">
<stop offset="0%" style="stop-color:rgb(250,217,97);stop-opacity: 1"/>
<stop offset="100%" style="stop-color:rgb(247,107,28);stop-opacity: 1"/>
</linearGradient>
<path style="stroke: none; stroke-width: 1; stroke-dasharray: none; stroke-linecap: butt; stroke-dashoffset: 0; stroke-linejoin: miter; stroke-miterlimit: 4; fill: url(#SVGID_17_12466); fill-rule: nonzero; opacity: 1;"  paint-order="stroke"  transform=" translate(-24.7030830909812, -10.84400557927557)" d="M 0 0 C 0.324 -0.741 1.05 -1.181 1.81 -1.181 C 2.076 -1.181 2.347 -1.127 2.605 -1.0150000000000001 L 48.391999999999996 19.085 C 49.391999999999996 19.525000000000002 49.842999999999996 20.691000000000003 49.406 21.691000000000003 C 48.971 22.69 47.805 23.135 46.801 22.706000000000003 L 1.015 2.605 C 0.015 2.166 -0.437 1 0 0" stroke-linecap="round" />
</g>
		<g transform="matrix(0.620133606563293 0 0 -0.6201336065632931 -22.446848398696147 46.99688738874511)"  >
<linearGradient id="SVGID_17_12467" gradientUnits="userSpaceOnUse" gradientTransform="matrix(1 0 0 1 -0.19708506985647034 -1.1189999999999998)"  x1="0" y1="0" x2="0" y2="24">
<stop offset="0%" style="stop-color:rgb(250,217,97);stop-opacity: 1"/>
<stop offset="100%" style="stop-color:rgb(247,107,28);stop-opacity: 1"/>
</linearGradient>
<path style="stroke: none; stroke-width: 1; stroke-dasharray: none; stroke-linecap: butt; stroke-dashoffset: 0; stroke-linejoin: miter; stroke-miterlimit: 4; fill: url(#SVGID_17_12467); fill-rule: nonzero; opacity: 1;"  paint-order="stroke"  transform=" translate(-22.26201116348023, -10.70639999679861)" d="M 0 0 C 0.34 -0.706 1.046 -1.119 1.779 -1.119 C 2.069 -1.119 2.3579999999999997 -1.058 2.637 -0.925 L 43.602000000000004 18.776 C 44.586000000000006 19.249 44.999 20.431 44.524 21.415 C 44.053000000000004 22.399 42.876 22.805 41.888 22.339 L 0.923 2.639 C -0.062 2.166 -0.475 0.984 0 0" stroke-linecap="round" />
</g>
		<g transform="matrix(0.620133606563293 0 0 -0.6201336065632931 -16.62845289403134 51.27797768953741)"  >
<linearGradient id="SVGID_17_12468" gradientUnits="userSpaceOnUse" gradientTransform="matrix(1 0 0 1 -23.340553793102075 -14.135)"  x1="0" y1="0" x2="0" y2="14">
<stop offset="0%" style="stop-color:rgb(250,217,97);stop-opacity: 1"/>
<stop offset="100%" style="stop-color:rgb(247,107,28);stop-opacity: 1"/>
</linearGradient>
<path style="stroke: none; stroke-width: 1; stroke-dasharray: none; stroke-linecap: butt; stroke-dashoffset: 0; stroke-linejoin: miter; stroke-miterlimit: 4; fill: url(#SVGID_17_12468); fill-rule: nonzero; opacity: 1;"  paint-order="stroke"  transform=" translate(10.26270183196981, 6.975496694047778)" d="M 0 0 L -22.201 -10.367 C -23.188 -10.828000000000001 -23.617 -12.006 -23.154 -12.994 C -22.818 -13.714 -22.104 -14.135 -21.363 -14.135 C -21.081 -14.135 -20.796 -14.075 -20.525 -13.949 L 1.6750000000000007 -3.583 C 2.6630000000000007 -3.121 3.0920000000000005 -1.9440000000000002 2.6280000000000006 -0.9560000000000004 C 2.165 0.04 0.98 0.455 0 0" stroke-linecap="round" />
</g>
		<g transform="matrix(0.620133606563293 0 0 -0.6201336065632931 -33.83201223116208 7.528794063842298)"  >
<linearGradient id="SVGID_17_12469" gradientUnits="userSpaceOnUse" gradientTransform="matrix(1 0 0 1 -15.263 -21.042)"  x1="0" y1="0" x2="0" y2="31">
<stop offset="0%" style="stop-color:rgb(250,217,97);stop-opacity: 1"/>
<stop offset="100%" style="stop-color:rgb(247,107,28);stop-opacity: 1"/>
</linearGradient>
<path style="stroke: none; stroke-width: 1; stroke-dasharray: none; stroke-linecap: butt; stroke-dashoffset: 0; stroke-linejoin: miter; stroke-miterlimit: 4; fill: url(#SVGID_17_12469); fill-rule: nonzero; opacity: 1;"  paint-order="stroke"  transform=" translate(-0.0004999999999988347, 5.780000000000001)" d="M 0 0 C 1.22 -2.862 2.919 -4.559 5.779 -5.778 C 2.919 -6.999 1.22 -8.697 0 -11.56 C -1.22 -8.697 -2.918 -6.999 -5.778 -5.778 C -2.918 -4.559 -1.22 -2.862 0 0 M -13.657 -7.721 C -4.561999999999999 -9.465 -3.6869999999999994 -10.34 -1.9410000000000007 -19.438000000000002 C -1.7640000000000007 -20.368000000000002 -0.9490000000000007 -21.042 -6.661338147750939e-16 -21.042 C 0.9499999999999993 -21.042 1.7649999999999992 -20.368000000000002 1.9419999999999993 -19.438000000000002 C 3.6869999999999994 -10.342000000000002 4.562999999999999 -9.465000000000002 13.657999999999998 -7.721000000000002 C 14.591999999999997 -7.541000000000002 15.263999999999998 -6.727000000000002 15.263999999999998 -5.778000000000002 C 15.263999999999998 -4.831000000000002 14.591999999999997 -4.017000000000002 13.657999999999998 -3.8370000000000024 C 4.563 -2.092 3.687 -1.216 1.942 7.879 C 1.765 8.81 0.95 9.482 0 9.482 C -0.949 9.482 -1.764 8.809999999999999 -1.941 7.879 C -3.6870000000000003 -1.218 -4.562 -2.0920000000000005 -13.657 -3.8369999999999997 C -14.592 -4.0169999999999995 -15.263 -4.8309999999999995 -15.263 -5.778 C -15.263 -6.726999999999999 -14.592 -7.5409999999999995 -13.657 -7.721" stroke-linecap="round" />
</g>
		<g transform="matrix(0.620133606563293 0 0 -0.6201336065632931 0.2665302326057599 -19.562300659121036)"  >
<linearGradient id="SVGID_17_12470" gradientUnits="userSpaceOnUse" gradientTransform="matrix(1 0 0 1 -9.164 -18.326999999999998)"  x1="0" y1="0" x2="0" y2="18">
<stop offset="0%" style="stop-color:rgb(250,217,97);stop-opacity: 1"/>
<stop offset="100%" style="stop-color:rgb(247,107,28);stop-opacity: 1"/>
</linearGradient>
<path style="stroke: none; stroke-width: 1; stroke-dasharray: none; stroke-linecap: butt; stroke-dashoffset: 0; stroke-linejoin: miter; stroke-miterlimit: 4; fill: url(#SVGID_17_12470); fill-rule: nonzero; opacity: 1;"  paint-order="stroke"  transform=" translate(0, 9.163499999999999)" d="M 0 0 C -1.305 -6.801 -2.362 -7.858 -9.164 -9.164 C -2.362 -10.469 -1.3049999999999997 -11.526 0 -18.326999999999998 C 1.306 -11.525999999999998 2.363 -10.468999999999998 9.164 -9.163999999999998 C 2.363 -7.858 1.306 -6.801 0 0" stroke-linecap="round" />
</g>
		<g transform="matrix(0.620133606563293 0 0 -0.6201336065632931 13.878896990194619 -21.145687796759148)"  >
<linearGradient id="SVGID_17_12471" gradientUnits="userSpaceOnUse" gradientTransform="matrix(1 0 0 1 -4.531 -5.107)"  x1="0" y1="0" x2="0" y2="9">
<stop offset="0%" style="stop-color:rgb(250,217,97);stop-opacity: 1"/>
<stop offset="100%" style="stop-color:rgb(247,107,28);stop-opacity: 1"/>
</linearGradient>
<path style="stroke: none; stroke-width: 1; stroke-dasharray: none; stroke-linecap: butt; stroke-dashoffset: 0; stroke-linejoin: miter; stroke-miterlimit: 4; fill: url(#SVGID_17_12471); fill-rule: nonzero; opacity: 1;"  paint-order="stroke"  transform=" translate(0.0015000000000000568, 0.577)" d="M 0 0 C 0.316 0 0.575 -0.259 0.575 -0.577 C 0.575 -1.22 -0.579 -1.208 -0.579 -0.577 C -0.579 -0.259 -0.32 0 0 0 M 0 -5.107 C 2.498 -5.107 4.528 -3.0740000000000003 4.528 -0.577 C 4.528 1.9210000000000003 2.4979999999999998 3.9530000000000003 0 3.9530000000000003 C -2.497 3.9530000000000003 -4.531 1.9210000000000003 -4.531 -0.577 C -4.531 -3.074 -2.497 -5.107 0 -5.107" stroke-linecap="round" />
</g>
		<g transform="matrix(0.620133606563293 0 0 -0.6201336065632931 21.62300144223576 -3.30574621650689)"  >
<linearGradient id="SVGID_17_12472" gradientUnits="userSpaceOnUse" gradientTransform="matrix(1 0 0 1 -1.765 0)"  x1="0" y1="0" x2="0" y2="4">
<stop offset="0%" style="stop-color:rgb(250,217,97);stop-opacity: 1"/>
<stop offset="100%" style="stop-color:rgb(247,107,28);stop-opacity: 1"/>
</linearGradient>
<path style="stroke: none; stroke-width: 1; stroke-dasharray: none; stroke-linecap: butt; stroke-dashoffset: 0; stroke-linejoin: miter; stroke-miterlimit: 4; fill: url(#SVGID_17_12472); fill-rule: nonzero; opacity: 1;"  paint-order="stroke"  transform=" translate(0, -1.7645)" d="M 0 0 C 0.975 0 1.765 0.79 1.765 1.765 C 1.765 2.739 0.975 3.529 0 3.529 C -0.975 3.529 -1.765 2.739 -1.765 1.765 C -1.765 0.79 -0.975 0 0 0" stroke-linecap="round" />
</g>
		<g transform="matrix(0.620133606563293 0 0 -0.6201336065632931 -29.59129057603974 -50.41419563908747)"  >
<linearGradient id="SVGID_17_12473" gradientUnits="userSpaceOnUse" gradientTransform="matrix(1 0 0 1 -3.845 -3.741)"  x1="0" y1="0" x2="0" y2="8">
<stop offset="0%" style="stop-color:rgb(250,217,97);stop-opacity: 1"/>
<stop offset="100%" style="stop-color:rgb(247,107,28);stop-opacity: 1"/>
</linearGradient>
<path style="stroke: none; stroke-width: 1; stroke-dasharray: none; stroke-linecap: butt; stroke-dashoffset: 0; stroke-linejoin: miter; stroke-miterlimit: 4; fill: url(#SVGID_17_12473); fill-rule: nonzero; opacity: 1;"  paint-order="stroke"  transform=" translate(-0.002000000000000224, -0.10599999999999987)" d="M 0 0 C -0.058 0 -0.104 0.048 -0.104 0.106 z M 0 -3.741 C 2.123 -3.741 3.849 -2.015 3.849 0.10599999999999987 C 3.849 2.227 2.123 3.953 0 3.953 C -2.119 3.953 -3.845 2.227 -3.845 0.10599999999999987 C -3.845 -2.015 -2.119 -3.741 0 -3.741" stroke-linecap="round" />
</g>
</g>
</g>
</svg>